# xmcd CD database file
#
# Track frame offsets:
#	180
#	77908
#	90887
#	105179
#	118626
#	131944
#	143973
#	156597
#	167971
#	182112
#	195888
#	209752
#	221265
#
# Disc length: 3102 seconds
#
# Revision: 0
# Processed by: cddbd v1.5.2PL0 Copyright (c) Steve Scherf et al.
# Submitted via: CDex 1.70beta2
#
DISCID=b60c1c0d
DTITLE=Charlie Parker - Great Master [CD3 of 10)
DYEAR=1900
DGENRE=Jazz
TTITLE0=Afro - Cuban Jazz Suite A. Introduction - B. Mambo - C. Transition - D. Introduction To 6/8 - E. 6/8 - F. Transition And Jazz - G. Rhumba Abierta (Part 1) - H. Coda (1948)
TTITLE1=Bird Feathers (1947)
TTITLE2=Cardboard (1949)
TTITLE3=Crazeology (1947)
TTITLE4=Drifting On A Reed (1947)
TTITLE5=Groovin' High (1945)
TTITLE6=If I Should Lose You (1949)
TTITLE7=Leap Frog (1950)
TTITLE8=Out Of Nowhere (1950)
TTITLE9=Romance Without Finance (1944)
TTITLE10=Steeplechase (1948)
TTITLE11=The Hymn (1947)
TTITLE12=Charlie Parker - Warming Up A Riff
EXTD=
EXTT0=
EXTT1=
EXTT2=
EXTT3=
EXTT4=
EXTT5=
EXTT6=
EXTT7=
EXTT8=
EXTT9=
EXTT10=
EXTT11=
EXTT12=
PLAYORDER=
